<!DOCTYPE svg PUBLIC "-//W3C//DTD SVG 1.1//EN" "http://www.w3.org/Graphics/SVG/1.1/DTD/svg11.dtd">
<!-- Uploaded to: SVG Repo, www.svgrepo.com, Transformed by: SVG Repo Mixer Tools -->
<svg fill="#ff7b00" height="64px" width="64px" version="1.1" id="Capa_1" xmlns="http://www.w3.org/2000/svg" xmlns:xlink="http://www.w3.org/1999/xlink" viewBox="0 0 272.909 272.909" xml:space="preserve" stroke="#ff7b00">
<g id="SVGRepo_bgCarrier" stroke-width="0"/>
<g id="SVGRepo_tracerCarrier" stroke-linecap="round" stroke-linejoin="round"/>
<g id="SVGRepo_iconCarrier"> <g> <path d="M231.119,266.211c-18.454-28.938-36.513-58.246-55.166-87.125c-2.804-4.901-5.784-9.701-8.973-14.375 c-0.288-0.423-0.633-0.678-0.993-0.865c-5.398-8.19-10.803-16.376-16.361-24.445c0.203-0.113,0.422-0.163,0.615-0.311 c2.284-1.755,2.954-5.384,2.17-8.423c3.729,1.874,8.338,1.447,11.191-2.42c3.174-4.302,1.144-10.821-3.65-12.474 c21.869-24.051,22.641-65.307,4.01-91.62C142.627-5.982,106.705-4.7,76.443,10.48c-63.37,31.787-34.588,149.996,39.621,129.115 c-0.661,3.187-0.779,6.583,0.939,9.446c1.641,2.735,4.803,4.743,8.063,4.218c3.891-0.628,5.991-3.734,6.539-7.273 c2.232,1.442,5.128,1.862,7.783,0.325c0.455-0.263,0.793-0.597,1.164-0.911c22.157,43.787,51.27,87.286,80.072,126.995 c0.337,0.464,0.844,0.499,1.263,0.345c0.02,0.007,0.009,0.038,0.032,0.042c3.127,0.636,7.995-1.176,8.693-4.67 C231.241,267.754,231.622,267,231.119,266.211z M137.335,129.951c-1.301-0.531-2.452,1.226-1.777,2.312 c1.918,3.084,6.973,6.441,2.927,10.3c-2.571,2.452-5.459,1.378-7.007-0.899c-0.221-1.163-0.544-2.294-1.073-3.303 c-0.011-0.285-0.058-0.566-0.027-0.855c0.082-0.764-0.593-1.021-1.193-0.885c-0.08-0.093-0.13-0.216-0.214-0.305 c-1.147-1.224-2.87,0.088-2.609,1.519c0.606,3.326,3.907,10.751-2.091,11.608c-5.884,0.84-5.717-7.899-5.358-11.505 c0.01-0.102-0.065-0.151-0.078-0.24c-0.021-0.141-0.06-0.25-0.123-0.381c-0.059-0.095-0.098-0.186-0.185-0.255 c-0.294-0.377-0.713-0.668-1.325-0.577C45.745,147.173,16.465,46.423,78.47,13.948c25.876-13.552,57.301-15.748,78.121,7.456 c21.862,24.364,22.393,68.166-0.167,92.144c-0.693,0.737-0.699,1.614-0.344,2.316c-0.917,0.915-0.472,2.781,1.203,2.999 c4.144,0.541,5.694,5.081,2.821,8.095c-2.915,3.058-7.467,1.728-9.931-1.154c-0.536-0.627-1.364-0.293-1.743,0.286 c-0.714,0.088-1.359,0.882-1.085,1.578c0.968,2.463,4.322,7.151,0.299,8.644c-1.885,0.7-3.642-0.136-5.207-1.391 C141.412,132.767,139.672,130.906,137.335,129.951z"/> <path d="M105.419,103.029c-4.262-6.904-12.154-10.636-19.941-11.666c-0.71-0.094-1.293,0.107-1.758,0.458 c-0.006,0.003-0.011,0.006-0.016,0.009c-0.927,0.712-1.304,2.078-1.043,3.285c-1.149,6.74-1.038,14.122,3.3,19.702 c3.854,4.957,10.548,7.257,16.307,4.09C108.244,115.621,108.776,108.467,105.419,103.029z"/> <path d="M153.642,71.195c-4.613-10.02-17.064-13.008-26.852-15.396c-0.846-0.206-1.544-0.071-2.109,0.232 c-0.596-1-2.43-0.895-2.893,0.394c-3.68,10.227-2.825,23.239,3.676,32.241c5.046,6.987,14.965,11.162,22.773,5.882 C155.657,89.53,157.221,78.968,153.642,71.195z"/> <path d="M134.237,113.581c-1.316-3.808-6.36-5.183-10.012-5.396c-1.688-0.099-2.948,1.468-3.024,3.024 c-0.142,2.947,0.242,6.014,1.705,8.612c1.123,1.994,4.569,1.189,4.432-1.2c-0.065-1.14-0.149-2.241-0.198-3.343 c1.241,0.648,2.427,1.374,3.81,1.59C132.785,117.153,134.971,115.705,134.237,113.581z"/> </g> </g>
</svg>